<?xml version="1.0" standalone="no"?>
<!DOCTYPE svg PUBLIC "-//W3C//DTD SVG 20010904//EN"
 "http://www.w3.org/TR/2001/REC-SVG-20010904/DTD/svg10.dtd">
<svg version="1.0" xmlns="http://www.w3.org/2000/svg"
 width="512.000000pt" height="512.000000pt" viewBox="0 0 512.000000 512.000000"
 preserveAspectRatio="xMidYMid meet">
<metadata>
Created by potrace 1.11, written by Peter Selinger 2001-2013
</metadata>
<g transform="translate(0.000000,512.000000) scale(0.100000,-0.100000)"
fill="#000000" stroke="none">
<path d="M2795 5113 c-74 -9 -243 -46 -318 -69 -290 -92 -566 -288 -752 -536
-40 -53 -77 -103 -82 -112 -8 -14 -14 -14 -63 -1 -104 28 -268 19 -385 -20
-203 -69 -379 -249 -442 -453 -20 -65 -23 -68 -78 -83 -152 -42 -338 -171
-452 -312 -91 -114 -179 -288 -198 -395 -2 -15 -9 -49 -14 -77 -14 -72 -6
-278 13 -360 80 -337 324 -608 647 -718 95 -32 204 -48 351 -50 l148 -2 0
-472 0 -473 -85 0 c-84 0 -86 0 -96 28 -21 58 -46 97 -87 139 -122 122 -314
138 -453 37 -99 -72 -143 -160 -144 -284 0 -77 3 -92 33 -152 88 -179 295
-251 472 -165 66 32 144 116 168 179 l20 53 142 1 c139 2 143 2 169 28 l26 26
0 585 c-1 553 -2 585 -19 604 -25 27 -46 30 -276 35 -204 4 -251 12 -372 60
-181 73 -349 237 -432 418 -94 209 -93 465 4 674 99 214 284 378 495 439 136
39 141 44 165 151 33 147 150 291 295 361 112 55 278 65 404 24 92 -30 115
-23 158 44 101 158 218 295 326 383 190 155 474 274 712 299 510 52 988 -162
1286 -576 150 -210 236 -455 254 -726 7 -110 17 -123 119 -154 257 -79 457
-314 494 -580 42 -306 -116 -609 -391 -744 -108 -53 -190 -73 -327 -78 -77 -3
-96 -13 -111 -56 -12 -39 9 -88 43 -99 30 -9 149 -6 227 7 311 49 583 283 685
589 34 101 41 154 40 295 0 93 -5 139 -23 205 -73 268 -283 505 -526 594 -27
10 -54 22 -58 26 -4 3 -10 35 -13 71 -5 52 -36 215 -58 302 -10 38 -69 184
-97 240 -78 154 -166 275 -294 403 -234 234 -516 379 -850 435 -67 11 -338 19
-400 12z m-2082 -4035 c106 -32 160 -165 108 -267 -75 -145 -299 -126 -345 30
-37 122 48 244 173 248 13 1 42 -4 64 -11z"/>
<path d="M2932 4678 c-44 -12 -69 -65 -50 -106 18 -36 49 -49 138 -56 110 -9
136 -15 232 -47 148 -49 284 -137 406 -262 61 -63 77 -70 121 -51 35 15 55 55
46 93 -16 62 -226 241 -367 312 -168 85 -428 142 -526 117z"/>
<path d="M3894 4023 c-31 -6 -57 -38 -57 -70 0 -16 12 -71 26 -123 15 -52 29
-124 32 -160 3 -36 8 -79 10 -96 13 -79 113 -96 149 -24 27 51 -2 253 -55 396
-15 38 -29 59 -49 69 -16 8 -30 14 -32 14 -2 -1 -13 -4 -24 -6z"/>
<path d="M1550 2083 c-25 -9 -50 -46 -50 -75 0 -15 11 -39 23 -54 l24 -28 248
0 248 -1 -1 -600 c0 -330 -1 -605 -1 -612 -1 -6 -29 -25 -63 -41 -137 -66
-209 -183 -203 -328 3 -84 13 -118 56 -183 103 -158 320 -206 479 -106 162
102 215 324 115 481 -45 70 -78 99 -155 137 l-65 32 0 668 0 669 -28 24 -28
24 -292 -1 c-161 0 -299 -3 -307 -6z m644 -1552 c40 -16 94 -70 107 -108 64
-193 -153 -338 -307 -205 -36 30 -57 83 -57 139 0 130 134 220 257 174z"/>
<path d="M2415 2078 c-26 -14 -39 -36 -43 -70 -4 -33 35 -77 70 -79 13 -1 124
-2 247 -3 l225 -1 0 -609 0 -610 -63 -32 c-136 -70 -209 -185 -206 -324 4
-127 59 -229 161 -292 230 -145 528 12 543 286 7 129 -85 274 -209 330 -33 15
-60 30 -61 34 0 4 -1 305 -2 669 l-2 661 -24 26 -23 25 -297 0 c-205 1 -302
-3 -316 -11z m651 -1549 c17 -5 45 -24 62 -42 118 -122 37 -319 -132 -320
-172 -1 -253 206 -128 326 51 49 116 61 198 36z"/>
<path d="M3283 2078 c-49 -24 -53 -105 -6 -135 21 -14 62 -17 266 -17 l242 -1
0 -528 1 -527 26 -26 c25 -25 29 -26 166 -28 77 0 142 -3 144 -6 3 -3 13 -27
23 -54 26 -70 113 -154 193 -185 159 -62 334 -2 427 143 40 64 54 121 51 205
-8 195 -173 342 -370 329 -147 -10 -264 -99 -315 -240 -10 -28 -12 -28 -96
-28 l-85 0 0 520 c0 359 -3 527 -11 543 -6 14 -22 30 -36 36 -32 15 -589 14
-620 -1z m1287 -1022 c46 -30 78 -87 83 -148 10 -110 -91 -207 -204 -196 -99
10 -171 91 -171 193 0 143 171 232 292 151z"/>
</g>
</svg>
